<?xml version="1.0" encoding="UTF-8" standalone="no"?><svg xmlns="http://www.w3.org/2000/svg" xmlns:xlink="http://www.w3.org/1999/xlink" fill="#000000" height="711" preserveAspectRatio="xMidYMid meet" version="1" viewBox="-13.2 -12.0 4026.4 711.0" width="4026.4" zoomAndPan="magnify"><g fill="#fcf4f3" id="change1_1"><path d="M20.043,339.711c-8.558-10.73-24.908,2.618-18.649,13.923C10.272,368.515,33.966,350.377,20.043,339.711z" fill="inherit"/><path d="M3979.957,339.711c8.558-10.73,24.908,2.618,18.649,13.923 C3989.728,368.515,3966.034,350.377,3979.957,339.711z" fill="inherit"/><path d="M846.292,137.125c27.782-1.341,59.077,18.266,60.802,48.028c1.852,24.397-20.629,38.895-32.189,57.48 c44.196-4.343,84.56-44.324,78.748-90.5c-4.701-65.655-134.287-164.094-244.036,64.57 c3.181-138.132-138.521-136.612-173.208-61.504c-19.096,38.065-4.982,92.416,35.766,109.66 c34.744,16.605,85.071-15.584,73.958-55.82c-4.407-24.525-32.38-33.722-54.159-26.633c8.303,7.281,17.563,13.348,25.1,21.395 c10.985,18.777-13.22,42.344-31.997,32.955c-59.275-27.744-0.473-126.68,64.442-91.841 c85.518,44.758,26.684,286.878-153.792,252.594c-82.197-17.602-52.959-120.473,5.556-101.613 c11.368,5.684,20.437,14.881,30.976,21.715c-12.486-78.116-87.792-71.442-118.984-42.663 c-61.817,54.172-18.764,196.736,183.746,139.869C476.521,515.991,255.566,453.848,154.1,384.354 c-167.313-123.065,9.727-225.847,32.508-130.672c7.856,22.034-6.77,42.663-11.879,63.42c24.972-13.476,44.451-39.47,44.132-68.657 c8.194-116.941-174.811-115.382-189.302,6.131C8.49,372.341,177.782,491.721,366.842,505.383 C737.322,527.762,684.28,151.667,846.292,137.125z" fill="inherit"/><path d="M3153.708,137.125c-27.782-1.341-59.077,18.266-60.802,48.028c-1.852,24.397,20.629,38.895,32.189,57.48 c-44.196-4.343-84.56-44.324-78.748-90.5c4.701-65.655,134.287-164.094,244.036,64.57 c-3.181-138.132,138.521-136.612,173.208-61.504c19.096,38.065,4.982,92.416-35.766,109.66 c-34.744,16.605-85.071-15.584-73.958-55.82c4.407-24.525,32.381-33.722,54.159-26.633c-8.302,7.281-17.563,13.348-25.1,21.395 c-10.985,18.777,13.22,42.344,31.997,32.955c59.275-27.744,0.473-126.68-64.442-91.841 c-85.518,44.758-26.684,286.878,153.792,252.594c82.197-17.602,52.959-120.473-5.556-101.613 c-11.368,5.684-20.438,14.881-30.976,21.715c12.486-78.116,87.792-71.442,118.984-42.663 c61.817,54.172,18.764,196.736-183.746,139.869c120.498,101.172,341.453,39.029,442.918-30.465 c167.313-123.065-9.727-225.847-32.508-130.672c-7.856,22.034,6.77,42.663,11.879,63.42c-24.972-13.476-44.451-39.47-44.132-68.657 c-8.194-116.941,174.811-115.382,189.302,6.131c21.07,117.765-148.223,237.145-337.282,250.807 C3262.678,527.762,3315.72,151.667,3153.708,137.125z" fill="inherit"/><path d="M60.854,436.023c6.451-4.151,11.688-9.772,17.244-15.009C52.117,380.273,29.163,431.82,60.854,436.023z" fill="inherit"/><path d="M3939.146,436.023c-6.45-4.151-11.688-9.772-17.244-15.009 C3947.883,380.273,3970.836,431.82,3939.146,436.023z" fill="inherit"/><path d="M146.82,469.042c-15.073-16.478-40.364,11.049-23.886,25.291 C138.325,511.705,164.958,483.284,146.82,469.042z" fill="inherit"/><path d="M3853.18,469.042c15.073-16.478,40.364,11.049,23.886,25.291 C3861.675,511.705,3835.042,483.284,3853.18,469.042z" fill="inherit"/><path d="M201.426,529.332c-2.235,12.454,11.241,16.925,18.777,23.248c9.836-5.94,27.08-15.392,19.607-29.57 C235.084,500.784,198.233,506.213,201.426,529.332z" fill="inherit"/><path d="M3798.574,529.332c2.235,12.454-11.241,16.925-18.777,23.248c-9.835-5.94-27.08-15.392-19.607-29.57 C3764.916,500.784,3801.767,506.213,3798.574,529.332z" fill="inherit"/><path d="M289.243,211.019c-3.641,10.091-8.047,20.054-10.091,30.592c12.39,19.416,39.661,27.59,60.418,17.308 c2.044-8.047,3.768-16.158,5.109-24.397c7.983,4.088,15.967,8.239,24.014,12.199c19.032-13.093,28.165-37.171,21.715-59.524 c-6.195-3.385-12.582-6.514-19.096-9.389c3.193-6.323,6.131-12.837,8.75-19.416c-9.452-21.331-36.468-36.787-59.141-27.016 c-3.577,9.005-5.109,18.713-7.217,28.102c-9.325-4.854-18.202-13.157-29.57-11.368c-19.863,14.115-32.572,43.43-15.584,64.57 C273.724,212.232,284.07,211.402,289.243,211.019z M329.99,182.215c6.514,3.832,16.861,13.476,10.155,21.396 c-2.81,8.175-18.713,5.11-19.863-3.129C315.493,192.242,325.584,187.58,329.99,182.215z" fill="inherit"/><path d="M3710.757,211.019c3.64,10.091,8.047,20.054,10.091,30.592c-12.39,19.416-39.662,27.59-60.418,17.308 c-2.044-8.047-3.768-16.158-5.109-24.397c-7.984,4.088-15.967,8.239-24.014,12.199c-19.032-13.093-28.166-37.171-21.715-59.524 c6.195-3.385,12.582-6.514,19.096-9.389c-3.193-6.323-6.131-12.837-8.75-19.416c9.452-21.331,36.468-36.787,59.141-27.016 c3.577,9.005,5.109,18.713,7.217,28.102c9.325-4.854,18.202-13.157,29.571-11.368c19.863,14.115,32.572,43.43,15.583,64.57 C3726.276,212.232,3715.93,211.402,3710.757,211.019z M3670.01,182.215c-6.514,3.832-16.861,13.476-10.155,21.396 c2.81,8.175,18.713,5.11,19.863-3.129C3684.507,192.242,3674.416,187.58,3670.01,182.215z" fill="inherit"/><path d="M342.764,523.968c7.025,10.602,14.626,20.757,23.12,30.145c-38.027,42.401,5.25,83.417-68.274,97.397 c43.43,27.271,101.165,3.385,126.521-37.682c8.175,10.921,17.372,20.948,27.335,30.145c1.373-54.574,9.197-82.491,62.079-95.162 C433.136,481.675,406.146,536.492,342.764,523.968z M434.477,558.264c-37.809,23.184-51.86,69.998-90.244,92.799 c17.052-22.8,27.718-50.263,49.305-69.423c-5.812,0.128-17.5,0.447-23.375,0.575c18.138-22.481,46.559-31.614,74.661-31.359 c-6.451-5.62-12.901-11.368-19.352-17.18c19.352-1.022,38.64,1.086,57.289,6.514C466.411,545.491,448.656,548.045,434.477,558.264z" fill="inherit"/><path d="M3657.236,523.968c-7.025,10.602-14.625,20.757-23.12,30.145c38.027,42.401-5.25,83.417,68.274,97.397 c-43.429,27.271-101.166,3.385-126.521-37.682c-8.175,10.921-17.372,20.948-27.335,30.145 c-1.373-54.574-9.197-82.491-62.079-95.162C3566.864,481.675,3593.854,536.492,3657.236,523.968z M3565.523,558.264 c37.809,23.184,51.86,69.998,90.244,92.799c-17.052-22.8-27.718-50.263-49.305-69.423c5.812,0.128,17.5,0.447,23.375,0.575 c-18.138-22.481-46.559-31.614-74.661-31.359c6.451-5.62,12.901-11.368,19.352-17.18c-19.352-1.022-38.64,1.086-57.289,6.514 C3533.589,545.491,3551.344,548.045,3565.523,558.264z" fill="inherit"/><path d="M2000,435.005c-8.68,4.728-16.641,10.694-23.452,17.814c-50.972,50.277-41.035,143.065,23.452,185.337 c64.487-42.272,74.424-135.059,23.452-185.337C2016.641,445.699,2008.68,439.733,2000,435.005z M2000,591.256 c-21.39-27.489-27.136-67.726-9.081-98.583c2.433-4.78,5.509-9.118,9.081-12.977c3.571,3.859,6.647,8.197,9.081,12.977 C2027.136,523.531,2021.39,563.767,2000,591.256z" fill="inherit"/><path d="M517.121,590.645c8.494,28.357,47.453,25.675,57.992,52.243c-4.918,8.75-9.9,17.372-14.753,26.058 c58.055-14.409,77.062-109.187-14.817-119.815c49.938-44.688,163.046-73.128,233.051,8.75 c-165.129-53.981-152.17,99.211-33.339,76.066c59.514,37.228,89.402,3.035,84.624-21.395c-3.704-26.441-32.317-37.234-43.43-59.78 c109.749,12.844,137.857-70.631,133.61-121.347c-10.729,21.779-20.565,46.048-42.791,58.694 c-30.273,20.948-75.746,12.965-95.928-18.138c-56.037-79.687,66.454-255.034,359.572-48.731 c-223.19-42.025-215.552,275.785-39.151,228.644c44.068-9.835,83.73-56.842,67.763-103.081 c-12.556-46.572-100.565-70.318-104.933,18.649c11.368-13.923,22.481-34.488,43.877-30.784 c23.12-0.256,35.702,27.399,27.399,47.006c-14.689,39.981-71.275,51.796-103.656,26.313 c-62.13-49.223-24.915-175.769,95.481-161.967c107.942,11.879,219.064,145.311,389.398,87.69 c121.59-37.669,262.213-226.045,361.616-163.947c25.483,15.328,41.641,51.605,24.716,78.684 c-10.794,18.394-32.38,24.27-50.519,32.572c40.811,9.708,89.988-6.897,105.891-48.22c25.739-60.738-34.615-129.267-96.95-125.754 c-68.466,1.916-123.2,48.092-174.741,87.881c26.313-38.256,40.045-92.16,11.496-133.099c-0.511-1.597-1.533-4.662-2.044-6.259 c1.603,5.01,14.914,10.415,19.335,12.294c16.01,6.804,38.846,9.194,54.118-1.13c13.213-8.932,9.308-30.067,3.754-42.741 c-5.136-11.721-13.628-20.28-22.532-29.146c-5.699-5.675-6.754-11.283-10.126-18.519c-5.095-10.934-12.513-20.628-21.561-28.587 c-19.064-16.771-44.126-25.368-68.892-29.142c-50.15-7.643-109.578,1.168-151.919,30.491 c-20.729,14.356-42.16,41.928-28.843,68.479c10.091,20.118,34.679,23.503,50.455,37.234c11.624,12.071-4.471,25.292-7.792,36.979 c9.069-4.279,18.138-8.814,27.207-13.284c-42.472,107.814,101.862,131.566,101.357,56.97c2.363-20.501-16.286-32.125-32.509-39.151 c5.301,12.454,18.458,24.844,11.56,39.215c-7.473,21.842-40.364,24.653-52.435,5.556c-16.733-22.992-6.131-56.714,15.903-72.234 c55.405-44.234,163.111,22.117,78.365,140.572c-36.021,48.986-94.587,87.562-157.496,82.261 c-216.797-24.902-92.863-240.907-19.48-103.401c7.536-27.08-0.064-58.758-24.78-74.469 c-81.309-61.178-192.521,69.251-76.896,154.942c38.703,30.848,88.52,42.152,136.995,44.004 c-229.788,96.503-585.815-320.332-411.943-399.361c44.937-23.094,130.851,33.224,42.344,113.875 c50.136-7.281,88.52-59.907,70.957-109.596c-14.37-55.181-83.283-75.044-132.014-54.67 c-83.493,30.573-96.133,162.58-39.597,225.132c-146.728-97.449-427.559,45.18-331.598,209.484 C606.241,472.254,502.4,533.58,517.121,590.645z M796.987,582.661c9.516,11.752,25.292,24.972,19.416,41.961 c-10.347,22.226-38.64,10.346-56.65,6.514C776.294,618.491,790.6,602.971,796.987,582.661z M783.511,575.317 c-1.916,21.268-16.797,37.809-36.851,44.132c-1.916-8.814-9.261-18.33-5.237-27.591c6.45-8.047,14.242-14.881,20.948-22.801 c-48.795,6.764-32.138,38.435-27.718,55.692C620.647,620.078,663.106,519.349,783.511,575.317z M1749.821,209.869 c10.794,11.049,26.249,27.846,15.903,43.941c-13.859,17.436-37.362,7.345-54.287,0.766 C1730.022,244.741,1738.58,226.091,1749.821,209.869z M1488.157,185.344c7.664,1.405,23.056,4.279,30.72,5.684 c-4.471,4.407-9.005,8.686-13.476,12.965c11.177,4.279,22.098,9.197,32.572,15.072c-5.237,0.256-15.583,0.83-20.821,1.086 c9.58,8.494,17.819,18.394,22.226,30.528C1519.005,232.095,1481.323,219.449,1488.157,185.344z M1607.333,227.624 c-18.649,4.471-35.894,13.348-50.008,26.377c12.282-68.785-32.725-73.581-60.354-80.217 c64.793-55.111,189.353-62.334,232.732,8.814C1667.591,163.297,1602.153,162.505,1607.333,227.624z M1686.911,249.595 c-19.735-13.987-42.855-21.268-66.613-24.589c-0.064-10.346-2.427-23.759,8.366-29.89c23.057-16.542,52.818-11.496,78.876-6.706 l-0.575,5.301C1679.311,197.926,1673.691,228.774,1686.911,249.595z M1691.829,218.747c6.706-9.644,17.819-16.222,20.31-28.613 c5.62,2.81,16.797,8.367,22.353,11.177c-1.597,20.757-17.053,34.616-33.786,44.707 C1697.258,237.396,1689.083,228.774,1691.829,218.747z M535.771,562.288c10.857-1.214,42.28,0.766,21.14,16.925 c10.027,4.79,19.991,9.836,29.635,15.328c-5.365,0.192-16.159,0.575-21.523,0.766c10.474,7.856,18.968,17.883,22.353,30.784 C567.896,606.803,532.194,595.435,535.771,562.288z" fill="inherit"/><path d="M2220.387,250.167c0.087,1.756,0.343,3.465,0.793,5.103c3.521,12.796,19.859,18.737,31.532,19.886 c18.123,1.784,37.395-5.36,50.733-17.578c-0.511,1.597-1.533,4.662-2.044,6.259c-28.548,40.939-14.817,94.843,11.496,133.099 c-51.541-39.789-106.275-85.965-174.74-87.881c-62.334-3.513-122.689,65.017-96.95,125.754 c15.903,41.322,65.081,57.927,105.891,48.22c-18.138-8.303-39.725-14.179-50.519-32.572c-16.925-27.08-0.767-63.356,24.717-78.684 c99.402-62.098,240.025,126.278,361.615,163.947c170.334,57.621,281.456-75.81,389.398-87.69 c120.396-13.802,157.611,112.745,95.481,161.967c-32.381,25.483-88.967,13.668-103.656-26.313 c-8.303-19.607,4.279-47.262,27.399-47.006c21.396-3.704,32.509,16.861,43.877,30.784c-4.368-88.967-92.377-65.221-104.934-18.649 c-15.967,46.24,23.695,93.246,67.763,103.081c176.401,47.141,184.04-270.669-39.15-228.644 c293.118-206.304,415.609-30.956,359.572,48.731c-20.182,31.103-65.655,39.087-95.928,18.138 c-22.226-12.646-32.061-36.915-42.791-58.694c-4.247,50.717,23.861,134.191,133.61,121.347 c-11.113,22.545-39.725,33.339-43.43,59.78c-4.778,24.43,25.109,58.624,84.624,21.395c118.831,23.145,131.79-130.046-33.339-76.066 c70.005-81.878,183.113-53.438,233.051-8.75c-91.879,10.627-72.872,105.406-14.817,119.815 c-4.854-8.686-9.835-17.308-14.753-26.058c10.539-26.569,49.497-23.886,57.992-52.243c14.721-57.065-89.12-118.391-201.373-91.011 c95.96-164.305-184.87-306.933-331.598-209.484c56.535-62.551,43.896-194.558-39.597-225.132 c-48.731-20.374-117.643-0.511-132.014,54.67c-17.563,49.689,20.821,102.315,70.957,109.596 c-88.507-80.651-2.593-136.969,42.344-113.875c173.872,79.029-182.156,495.864-411.943,399.361 c48.476-1.852,98.292-13.157,136.995-44.004c115.625-85.69,4.413-216.12-76.896-154.942 c-24.717,15.711-32.317,47.389-24.781,74.469c73.383-137.506,197.317,78.499-19.479,103.401 c-62.909,5.301-121.475-33.275-157.496-82.261c-84.745-118.454,22.96-184.806,78.365-140.572 c22.034,15.52,32.636,49.242,15.903,72.234c-12.071,19.096-44.963,16.286-52.435-5.556c-6.897-14.37,6.259-26.76,11.56-39.215 c-16.222,7.025-34.871,18.649-32.509,39.151c-0.504,74.597,143.829,50.845,101.357-56.97c9.069,4.471,18.138,9.005,27.208,13.284 c-3.321-11.688-19.416-24.908-7.792-36.979c15.775-13.731,40.364-17.116,50.455-37.234 c37.886-97.422-239.722-155.516-276.098-28.098c-2.54,8.897-12.39,14.139-18.108,20.816 C2227.354,222.278,2219.715,236.626,2220.387,250.167z M3183.597,624.622c-5.876-16.989,9.9-30.209,19.416-41.961 c6.387,20.31,20.693,35.83,37.235,48.475C3222.237,634.969,3193.944,646.848,3183.597,624.622z M3265.347,624.75 c4.42-17.257,21.076-48.929-27.718-55.692c6.706,7.92,14.498,14.753,20.948,22.801c4.024,9.261-3.321,18.777-5.237,27.591 c-20.054-6.323-34.935-22.864-36.851-44.132C3336.894,519.349,3379.353,620.078,3265.347,624.75z M3464.229,562.288 c3.577,33.147-32.125,44.515-51.604,63.803c3.385-12.901,11.879-22.928,22.354-30.784c-5.365-0.192-16.158-0.575-21.523-0.766 c9.644-5.492,19.607-10.538,29.634-15.328C3421.95,563.054,3453.372,561.075,3464.229,562.288z M2379.702,225.006 c-23.759,3.321-46.878,10.602-66.614,24.589c13.221-20.821,7.601-51.669-20.054-55.884l-0.575-5.301 c26.058-4.79,55.82-9.836,78.876,6.706C2382.129,201.247,2379.766,214.659,2379.702,225.006z M2460.622,250.68 c4.407-12.135,12.646-22.034,22.226-30.528c-5.237-0.255-15.584-0.83-20.821-1.086c10.474-5.876,21.396-10.794,32.572-15.072 c-4.471-4.279-9.005-8.558-13.476-12.965c7.664-1.405,23.056-4.279,30.72-5.684C2518.677,219.449,2480.995,232.095,2460.622,250.68 z M2503.03,173.784c-27.629,6.636-72.636,11.432-60.354,80.217c-14.115-13.029-31.359-21.906-50.008-26.377 c5.18-65.119-60.258-64.327-122.369-45.026C2313.676,111.45,2438.236,118.673,2503.03,173.784z M2287.861,190.134 c2.491,12.39,13.604,18.969,20.31,28.613c2.747,10.027-5.428,18.649-8.877,27.271c-16.733-10.091-32.189-23.95-33.786-44.707 C2271.064,198.501,2282.24,192.944,2287.861,190.134z M2250.179,209.869c11.24,16.222,19.799,34.871,38.384,44.707 c-16.925,6.578-40.427,16.669-54.287-0.766C2223.93,237.715,2239.386,220.918,2250.179,209.869z" fill="inherit"/><path d="M743.658,101.295c7.281-11.113-5.301-29.443-18.394-27.974c-15.648-1.916-28.549,20.629-16.733,32.253 C716.387,118.092,739.123,115.729,743.658,101.295z" fill="inherit"/><path d="M3256.342,101.295c-7.281-11.113,5.301-29.443,18.394-27.974c15.647-1.916,28.549,20.629,16.733,32.253 C3283.614,118.092,3260.877,115.729,3256.342,101.295z" fill="inherit"/><path d="M800.052,60.165c15.584,16.542,41.386-11.624,23.695-25.547C808.738,17.437,780.956,45.667,800.052,60.165z" fill="inherit"/><path d="M3199.948,60.165c-15.583,16.542-41.386-11.624-23.695-25.547 C3191.261,17.437,3219.044,45.667,3199.948,60.165z" fill="inherit"/><path d="M915.716,44.709c-1.724-21.715-38.384-9.708-27.08,8.878C895.023,68.02,919.803,61.314,915.716,44.709z" fill="inherit"/><path d="M3084.284,44.709c1.725-21.715,38.384-9.708,27.08,8.878C3104.977,68.02,3080.197,61.314,3084.284,44.709z" fill="inherit"/><path d="M986.034,81.241c-1.15-17.5-30.528-11.241-22.929,5.94C968.023,97.974,987.886,94.397,986.034,81.241z" fill="inherit"/><path d="M3013.966,81.241c1.15-17.5,30.529-11.241,22.929,5.94C3031.977,97.974,3012.114,94.397,3013.966,81.241z" fill="inherit"/><path d="M1082.729,670.224c-11.113,5.684-18.841,23.695-1.022,24.525 C1098.248,694.11,1090.009,676.738,1082.729,670.224z" fill="inherit"/><path d="M2917.271,670.224c11.113,5.684,18.841,23.695,1.022,24.525 C2901.752,694.11,2909.991,676.738,2917.271,670.224z" fill="inherit"/><path d="M1131.778,679.548c7.025,14.37,29.443,7.025,26.122-9.133 C1152.216,652.979,1124.37,662.432,1131.778,679.548z" fill="inherit"/><path d="M2868.222,679.548c-7.025,14.37-29.443,7.025-26.122-9.133 C2847.784,652.979,2875.63,662.432,2868.222,679.548z" fill="inherit"/><path d="M1215.636,621.493c-11.368-2.363-16.35,9.772-22.481,16.478 C1228.499,677.089,1239.171,624.724,1215.636,621.493z" fill="inherit"/><path d="M2784.364,621.493c11.368-2.363,16.35,9.772,22.481,16.478 C2771.501,677.089,2760.829,624.724,2784.364,621.493z" fill="inherit"/><path d="M1252.168,551.047c-12.262-15.584-38.384,1.724-31.039,19.288 C1236.444,600.442,1271.839,568.272,1252.168,551.047z" fill="inherit"/><path d="M2747.832,551.047c12.262-15.584,38.384,1.724,31.04,19.288 C2763.556,600.442,2728.161,568.272,2747.832,551.047z" fill="inherit"/><path d="M1375.623,239.887c8.75,10.027,17.563,19.927,27.335,28.932c0.812-82.612,32.017-85.94,61.824-95.481 c-80.92-64.359-104.819-13.259-171.675-23.95c7.6,10.155,15.647,19.926,24.333,29.123c-18.905,21.076-17.18,50.327-26.377,75.363 c-6.131,17.117-26.249,18.713-40.939,23.439C1293.362,304.776,1349.246,278.782,1375.623,239.887z M1345.286,205.654 c-5.94,0.511-17.883,1.533-23.886,2.044c14.434-17.116,34.425-28.996,57.161-29.954c2.172-6.068,4.279-12.199,6.323-18.394 c16.67-0.447,33.466,1.213,49.561,5.812c-95.788,23.637-83.065,78.965-138.719,109.66 C1313.097,252.341,1324.21,225.325,1345.286,205.654z" fill="inherit"/><path d="M2624.377,239.887c-8.75,10.027-17.563,19.927-27.335,28.932c-0.812-82.612-32.017-85.94-61.823-95.481 c80.92-64.359,104.819-13.259,171.675-23.95c-7.6,10.155-15.647,19.926-24.333,29.123c18.905,21.076,17.18,50.327,26.377,75.363 c6.131,17.117,26.249,18.713,40.938,23.439C2706.638,304.776,2650.754,278.782,2624.377,239.887z M2654.714,205.654 c5.939,0.511,17.883,1.533,23.886,2.044c-14.434-17.116-34.425-28.996-57.161-29.954c-2.172-6.068-4.279-12.199-6.323-18.394 c-16.67-0.447-33.467,1.213-49.561,5.812c95.788,23.637,83.065,78.965,138.719,109.66 C2686.903,252.341,2675.79,225.325,2654.714,205.654z" fill="inherit"/><path d="M1430.102,130.993c24.27,24.27,61.568,18.138,88.137,1.277c-0.894-2.171-2.746-6.451-3.64-8.622 c-15.648,8.494-37.043,12.39-49.433-3.768c-18.585-30.528,9.325-69.807-13.667-99.377c-20.118-29.443-65.847-25.675-86.221,1.724 C1442.415,26.59,1387.445,94.283,1430.102,130.993z M1428.569,39.791c2.874-2.044,8.622-6.068,11.496-8.047 c0.447,34.744,2.682,69.488,17.436,101.677c-29.89-29.443-19.735-76.13-42.791-109.66 C1419.372,29.061,1424.034,34.362,1428.569,39.791z" fill="inherit"/><path d="M2569.898,130.993c-24.27,24.27-61.568,18.138-88.137,1.277c0.894-2.171,2.746-6.451,3.64-8.622 c15.648,8.494,37.043,12.39,49.433-3.768c18.585-30.528-9.325-69.807,13.667-99.377c20.118-29.443,65.847-25.675,86.221,1.724 C2557.585,26.59,2612.555,94.283,2569.898,130.993z M2571.431,39.791c-2.874-2.044-8.622-6.068-11.496-8.047 c-0.447,34.744-2.682,69.488-17.436,101.677c29.89-29.443,19.735-76.13,42.791-109.66 C2580.628,29.061,2575.966,34.362,2571.431,39.791z" fill="inherit"/><path d="M1409.6,573.209c-5.876,3.96-11.879,7.792-18.011,11.432c4.854,9.836,9.261,19.927,12.837,30.337 c12.391,1.916,23.184-5.109,33.53-10.858C1444.408,588.218,1430.166,557.051,1409.6,573.209z" fill="inherit"/><path d="M2590.4,573.209c5.876,3.96,11.879,7.792,18.011,11.432c-4.854,9.836-9.261,19.927-12.837,30.337 c-12.39,1.916-23.184-5.109-33.531-10.858C2555.592,588.218,2569.834,557.051,2590.4,573.209z" fill="inherit"/><path d="M1528.266,570.974c-1.916,2.938-5.812,8.814-7.728,11.751c-17.116-6.642-29.762,17.116-14.178,26.569 c0.192,9.58,6.642,15.264,14.434,19.607c9.644-5.748,19.927-10.346,30.465-14.434c-0.767-11.688-4.407-22.865-7.025-34.169 C1540.273,577.935,1532.289,573.273,1528.266,570.974z M1522.454,605.207c-2.746-8.878,0.319-11.752,9.261-8.75 C1534.333,605.462,1531.203,608.4,1522.454,605.207z" fill="inherit"/><path d="M2471.734,570.974c1.916,2.938,5.812,8.814,7.728,11.751c17.116-6.642,29.762,17.116,14.178,26.569 c-0.192,9.58-6.642,15.264-14.434,19.607c-9.644-5.748-19.927-10.346-30.464-14.434c0.767-11.688,4.407-22.865,7.025-34.169 C2459.728,577.935,2467.711,573.273,2471.734,570.974z M2477.546,605.207c2.746-8.878-0.319-11.752-9.261-8.75 C2465.667,605.462,2468.797,608.4,2477.546,605.207z" fill="inherit"/><path d="M1671.775,550.345c1.086-3.704,3.193-11.049,4.279-14.753c-9.899-5.684-19.352-16.095-31.87-14.37 c-3.96,5.684-7.153,11.815-9.644,18.33c-21.906-23.758-47.773,33.977-15.392,34.105c-18.457,25.866,36.149,43.749,36.085,13.221 c4.215,1.469,12.709,4.407,16.925,5.876C1681.419,580.554,1690.168,559.158,1671.775,550.345z M1653.126,569.76 c-8.111,8.111-20.565-5.173-12.646-13.284C1648.144,546.704,1660.279,562.224,1653.126,569.76z" fill="inherit"/><path d="M2328.225,550.345c-1.086-3.704-3.194-11.049-4.279-14.753c9.899-5.684,19.352-16.095,31.87-14.37 c3.96,5.684,7.153,11.815,9.644,18.33c21.906-23.758,47.773,33.977,15.392,34.105c18.458,25.866-36.149,43.749-36.085,13.221 c-4.215,1.469-12.709,4.407-16.925,5.876C2318.581,580.554,2309.832,559.158,2328.225,550.345z M2346.875,569.76 c8.111,8.111,20.565-5.173,12.646-13.284C2351.856,546.704,2339.721,562.224,2346.875,569.76z" fill="inherit"/><path d="M1813.879,485.136c3.321-6.195,6.323-12.518,9.069-18.969c-9.772-20.885-35.446-36.404-58.438-27.846 c-4.598,8.878-5.684,18.969-7.728,28.549c-9.516-4.854-19.224-9.389-29.123-13.412c-18.202,16.414-33.977,43.494-17.18,66.55 c5.429-0.383,16.35-1.086,21.778-1.469c-3.129,10.985-11.624,21.97-8.558,33.594c13.732,18.202,37.81,21.204,58.694,16.35 c1.469-8.558,2.874-17.18,4.279-25.802c8.047,3.576,15.903,7.472,24.269,10.282c21.076-10.027,27.654-36.66,22.417-57.8 C1826.972,491.523,1820.457,488.202,1813.879,485.136z M1762.913,507.937c-4.79-8.686,6.898-16.861,15.073-16.414 c1.725,3.385,5.11,10.027,6.834,13.412C1786.608,518.603,1766.234,519.05,1762.913,507.937z" fill="inherit"/><path d="M2186.121,485.136c-3.321-6.195-6.323-12.518-9.069-18.969c9.771-20.885,35.446-36.404,58.438-27.846 c4.598,8.878,5.684,18.969,7.728,28.549c9.516-4.854,19.224-9.389,29.123-13.412c18.202,16.414,33.977,43.494,17.18,66.55 c-5.429-0.383-16.35-1.086-21.778-1.469c3.129,10.985,11.624,21.97,8.558,33.594c-13.731,18.202-37.809,21.204-58.694,16.35 c-1.469-8.558-2.874-17.18-4.279-25.802c-8.047,3.576-15.903,7.472-24.27,10.282c-21.076-10.027-27.654-36.66-22.417-57.8 C2173.028,491.523,2179.543,488.202,2186.121,485.136z M2237.087,507.937c4.79-8.686-6.897-16.861-15.073-16.414 c-1.725,3.385-5.11,10.027-6.834,13.412C2213.392,518.603,2233.766,519.05,2237.087,507.937z" fill="inherit"/></g></svg>